<mxfile host="app.diagrams.net" modified="2024-04-29T21:50:49.968Z" agent="Mozilla/5.0 (Windows NT 10.0; Win64; x64; rv:124.0) Gecko/20100101 Firefox/124.0" etag="0R9g_mF5UaKoHV0G0qRS" version="24.3.0" type="device">
  <diagram name="Seite-1" id="LfnFzkRs_u6CIysaGWwV">
    <mxGraphModel dx="1434" dy="794" grid="0" gridSize="10" guides="1" tooltips="1" connect="1" arrows="1" fold="1" page="1" pageScale="1" pageWidth="1169" pageHeight="1654" math="0" shadow="0">
      <root>
        <mxCell id="0" />
        <mxCell id="1" parent="0" />
        <mxCell id="4hx0eJwsiZ-HK9H2qoUk-3" value="" style="edgeStyle=orthogonalEdgeStyle;rounded=0;orthogonalLoop=1;jettySize=auto;html=1;" edge="1" parent="1" source="4hx0eJwsiZ-HK9H2qoUk-1" target="4hx0eJwsiZ-HK9H2qoUk-2">
          <mxGeometry relative="1" as="geometry" />
        </mxCell>
        <mxCell id="4hx0eJwsiZ-HK9H2qoUk-1" value="&lt;font style=&quot;font-size: 21px;&quot;&gt;&lt;b&gt;Input Layer&lt;/b&gt;&lt;br&gt;&lt;/font&gt;" style="rounded=0;whiteSpace=wrap;html=1;" vertex="1" parent="1">
          <mxGeometry x="493" y="117" width="229" height="51" as="geometry" />
        </mxCell>
        <mxCell id="4hx0eJwsiZ-HK9H2qoUk-5" value="" style="edgeStyle=orthogonalEdgeStyle;rounded=0;orthogonalLoop=1;jettySize=auto;html=1;" edge="1" parent="1" source="4hx0eJwsiZ-HK9H2qoUk-2" target="4hx0eJwsiZ-HK9H2qoUk-4">
          <mxGeometry relative="1" as="geometry" />
        </mxCell>
        <mxCell id="4hx0eJwsiZ-HK9H2qoUk-2" value="&lt;font size=&quot;1&quot;&gt;&lt;b&gt;&lt;font style=&quot;font-size: 21px;&quot;&gt;GRU&lt;/font&gt;&lt;/b&gt;&lt;/font&gt;" style="whiteSpace=wrap;html=1;rounded=0;fillColor=#cce5ff;strokeColor=#36393d;" vertex="1" parent="1">
          <mxGeometry x="547.5" y="220" width="120" height="60" as="geometry" />
        </mxCell>
        <mxCell id="4hx0eJwsiZ-HK9H2qoUk-7" value="" style="edgeStyle=orthogonalEdgeStyle;rounded=0;orthogonalLoop=1;jettySize=auto;html=1;" edge="1" parent="1" source="4hx0eJwsiZ-HK9H2qoUk-4" target="4hx0eJwsiZ-HK9H2qoUk-6">
          <mxGeometry relative="1" as="geometry" />
        </mxCell>
        <mxCell id="4hx0eJwsiZ-HK9H2qoUk-4" value="&lt;font size=&quot;1&quot;&gt;&lt;b&gt;&lt;font style=&quot;font-size: 20px;&quot;&gt;Dropout&lt;/font&gt;&lt;/b&gt;&lt;/font&gt;" style="whiteSpace=wrap;html=1;rounded=0;" vertex="1" parent="1">
          <mxGeometry x="497" y="329" width="221" height="60" as="geometry" />
        </mxCell>
        <mxCell id="4hx0eJwsiZ-HK9H2qoUk-23" value="" style="edgeStyle=orthogonalEdgeStyle;rounded=0;orthogonalLoop=1;jettySize=auto;html=1;" edge="1" parent="1" source="4hx0eJwsiZ-HK9H2qoUk-6" target="4hx0eJwsiZ-HK9H2qoUk-19">
          <mxGeometry relative="1" as="geometry" />
        </mxCell>
        <mxCell id="4hx0eJwsiZ-HK9H2qoUk-6" value="&lt;font style=&quot;font-size: 18px;&quot;&gt;&lt;b&gt;AVG Pool&lt;/b&gt;&lt;br&gt;&lt;/font&gt;" style="whiteSpace=wrap;html=1;rounded=0;" vertex="1" parent="1">
          <mxGeometry x="547.5" y="485" width="120" height="60" as="geometry" />
        </mxCell>
        <mxCell id="4hx0eJwsiZ-HK9H2qoUk-8" value="&lt;font style=&quot;font-size: 18px;&quot;&gt;&lt;b&gt;MAX Pool&lt;/b&gt;&lt;br&gt;&lt;/font&gt;" style="whiteSpace=wrap;html=1;rounded=0;" vertex="1" parent="1">
          <mxGeometry x="687" y="485" width="120" height="60" as="geometry" />
        </mxCell>
        <mxCell id="4hx0eJwsiZ-HK9H2qoUk-9" value="&lt;font style=&quot;font-size: 18px;&quot;&gt;&lt;b&gt;Conv1D&lt;/b&gt;&lt;/font&gt;" style="whiteSpace=wrap;html=1;rounded=0;" vertex="1" parent="1">
          <mxGeometry x="404" y="485" width="120" height="60" as="geometry" />
        </mxCell>
        <mxCell id="4hx0eJwsiZ-HK9H2qoUk-13" value="" style="edgeStyle=segmentEdgeStyle;endArrow=classic;html=1;curved=0;rounded=0;endSize=8;startSize=8;" edge="1" parent="1">
          <mxGeometry width="50" height="50" relative="1" as="geometry">
            <mxPoint x="460" y="417" as="sourcePoint" />
            <mxPoint x="746" y="485" as="targetPoint" />
          </mxGeometry>
        </mxCell>
        <mxCell id="4hx0eJwsiZ-HK9H2qoUk-15" value="" style="edgeStyle=segmentEdgeStyle;endArrow=classic;html=1;curved=0;rounded=0;endSize=8;startSize=8;" edge="1" parent="1">
          <mxGeometry width="50" height="50" relative="1" as="geometry">
            <mxPoint x="460" y="417" as="sourcePoint" />
            <mxPoint x="460" y="485" as="targetPoint" />
          </mxGeometry>
        </mxCell>
        <mxCell id="4hx0eJwsiZ-HK9H2qoUk-17" value="&lt;font style=&quot;font-size: 14px;&quot;&gt;&lt;b&gt;XOR&lt;/b&gt;&lt;/font&gt;" style="text;html=1;align=center;verticalAlign=middle;whiteSpace=wrap;rounded=0;" vertex="1" parent="1">
          <mxGeometry x="599" y="415" width="60" height="30" as="geometry" />
        </mxCell>
        <mxCell id="4hx0eJwsiZ-HK9H2qoUk-18" value="" style="shape=waypoint;sketch=0;fillStyle=solid;size=6;pointerEvents=1;points=[];fillColor=none;resizable=0;rotatable=0;perimeter=centerPerimeter;snapToPoint=1;" vertex="1" parent="1">
          <mxGeometry x="597.5" y="407" width="20" height="20" as="geometry" />
        </mxCell>
        <mxCell id="4hx0eJwsiZ-HK9H2qoUk-25" value="" style="edgeStyle=orthogonalEdgeStyle;rounded=0;orthogonalLoop=1;jettySize=auto;html=1;" edge="1" parent="1" source="4hx0eJwsiZ-HK9H2qoUk-19" target="4hx0eJwsiZ-HK9H2qoUk-24">
          <mxGeometry relative="1" as="geometry" />
        </mxCell>
        <mxCell id="4hx0eJwsiZ-HK9H2qoUk-19" value="&lt;font size=&quot;1&quot;&gt;&lt;b style=&quot;font-size: 21px;&quot;&gt;Dense&lt;/b&gt;&lt;/font&gt;" style="whiteSpace=wrap;html=1;rounded=0;" vertex="1" parent="1">
          <mxGeometry x="535.5" y="639" width="144" height="54" as="geometry" />
        </mxCell>
        <mxCell id="4hx0eJwsiZ-HK9H2qoUk-20" style="rounded=0;orthogonalLoop=1;jettySize=auto;html=1;entryX=0.462;entryY=0.056;entryDx=0;entryDy=0;entryPerimeter=0;exitX=0.583;exitY=1.017;exitDx=0;exitDy=0;exitPerimeter=0;" edge="1" parent="1" source="4hx0eJwsiZ-HK9H2qoUk-9">
          <mxGeometry relative="1" as="geometry">
            <mxPoint x="486" y="556" as="sourcePoint" />
            <mxPoint x="607.028" y="640.0239999999999" as="targetPoint" />
          </mxGeometry>
        </mxCell>
        <mxCell id="4hx0eJwsiZ-HK9H2qoUk-21" style="rounded=0;orthogonalLoop=1;jettySize=auto;html=1;exitX=0.5;exitY=1;exitDx=0;exitDy=0;entryX=0.5;entryY=0;entryDx=0;entryDy=0;" edge="1" parent="1">
          <mxGeometry relative="1" as="geometry">
            <mxPoint x="748" y="546" as="sourcePoint" />
            <mxPoint x="608.5" y="640" as="targetPoint" />
          </mxGeometry>
        </mxCell>
        <mxCell id="4hx0eJwsiZ-HK9H2qoUk-22" style="edgeStyle=orthogonalEdgeStyle;rounded=0;orthogonalLoop=1;jettySize=auto;html=1;" edge="1" parent="1">
          <mxGeometry relative="1" as="geometry">
            <mxPoint x="608" y="556" as="sourcePoint" />
            <mxPoint x="608" y="641" as="targetPoint" />
          </mxGeometry>
        </mxCell>
        <mxCell id="4hx0eJwsiZ-HK9H2qoUk-27" value="" style="edgeStyle=orthogonalEdgeStyle;rounded=0;orthogonalLoop=1;jettySize=auto;html=1;" edge="1" parent="1" source="4hx0eJwsiZ-HK9H2qoUk-24" target="4hx0eJwsiZ-HK9H2qoUk-26">
          <mxGeometry relative="1" as="geometry" />
        </mxCell>
        <mxCell id="4hx0eJwsiZ-HK9H2qoUk-24" value="&lt;font size=&quot;1&quot;&gt;&lt;b style=&quot;font-size: 21px;&quot;&gt;Tanh&lt;/b&gt;&lt;/font&gt;" style="whiteSpace=wrap;html=1;rounded=0;" vertex="1" parent="1">
          <mxGeometry x="535.5" y="773" width="144" height="54" as="geometry" />
        </mxCell>
        <mxCell id="4hx0eJwsiZ-HK9H2qoUk-26" value="&lt;font style=&quot;font-size: 21px;&quot;&gt;&lt;b&gt;Output Layer&lt;/b&gt;&lt;br&gt;&lt;/font&gt;" style="rounded=0;whiteSpace=wrap;html=1;" vertex="1" parent="1">
          <mxGeometry x="493" y="892" width="229" height="51" as="geometry" />
        </mxCell>
      </root>
    </mxGraphModel>
  </diagram>
</mxfile>
